<?xml version="1.0" encoding="utf-8"?>
<!-- Generator: Adobe Illustrator 15.1.0, SVG Export Plug-In . SVG Version: 6.00 Build 0)  -->
<!DOCTYPE svg PUBLIC "-//W3C//DTD SVG 1.1//EN" "http://www.w3.org/Graphics/SVG/1.1/DTD/svg11.dtd">
<svg version="1.1" id="Layer_1" xmlns="http://www.w3.org/2000/svg" xmlns:xlink="http://www.w3.org/1999/xlink" x="0px" y="0px"
     width="100px" height="100px" viewBox="0 0 100 100" enable-background="new 0 0 100 100" xml:space="preserve">
<path d="M69.73,4.945H29.549c-2.731,0-4.944,2.213-4.944,4.944v80.113c0,2.729,2.213,4.943,4.944,4.943H69.73
    c2.73,0,4.944-2.214,4.944-4.943V9.889C74.675,7.158,72.461,4.945,69.73,4.945z M44.825,8.683h9.638
    c0.289,0,0.523,0.235,0.523,0.524c0,0.289-0.234,0.523-0.523,0.523h-9.638c-0.289,0-0.522-0.235-0.522-0.523
    C44.303,8.917,44.537,8.683,44.825,8.683z M49.682,91.188c-1.637,0-2.966-1.328-2.966-2.967c0-1.638,1.329-2.967,2.966-2.967
    c1.639,0,2.967,1.329,2.967,2.967C52.649,89.86,51.321,91.188,49.682,91.188z M70.034,81.498h-40.79V13.447h40.79V81.498z"/>
<rect x="29.245" y="13.447" fill="#FFFFFF" width="40.79" height="68.051"/>
</svg>
