<?xml version="1.0" standalone="no"?>
<!DOCTYPE svg PUBLIC "-//W3C//DTD SVG 20010904//EN"
 "http://www.w3.org/TR/2001/REC-SVG-20010904/DTD/svg10.dtd">
<svg version="1.0" xmlns="http://www.w3.org/2000/svg"
 width="128.000000pt" height="128.000000pt" viewBox="0 0 128.000000 128.000000"
 preserveAspectRatio="xMidYMid meet">
<metadata>
Created by potrace 1.13, written by Peter Selinger 2001-2015
</metadata>
<g transform="translate(0.000000,128.000000) scale(0.100000,-0.100000)"
fill="#000000" stroke="none">
<path d="M626 1189 c-3 -8 -28 -88 -56 -179 -29 -91 -58 -181 -65 -200 l-13
-35 -227 -5 -227 -5 186 -134 c102 -73 186 -137 186 -141 0 -4 -27 -97 -60
-206 -33 -109 -59 -201 -58 -204 2 -4 81 50 177 120 l175 127 30 -18 c17 -11
101 -68 186 -128 85 -60 156 -108 157 -107 2 1 -29 96 -67 211 -38 114 -68
211 -65 215 2 4 83 65 180 136 l176 129 -228 3 -228 2 -69 208 c-71 211 -82
236 -90 211z m59 -354 c50 -154 31 -140 189 -138 75 1 136 -2 136 -5 -1 -4
-48 -41 -105 -82 -58 -41 -105 -79 -105 -85 0 -5 18 -66 40 -134 22 -68 39
-126 37 -127 -2 -2 -54 33 -115 77 -67 47 -118 77 -125 72 -29 -17 -203 -147
-210 -157 -12 -16 0 36 32 139 16 50 32 100 35 111 6 18 -10 33 -109 103 -63
45 -115 84 -115 85 0 2 62 3 138 3 l137 -1 26 80 c15 43 34 105 44 138 21 70
22 69 70 -79z"/>
</g>
</svg>
